<mxfile host="app.diagrams.net" modified="2024-07-24T12:02:35.784Z" agent="Mozilla/5.0 (Windows NT 10.0; Win64; x64) AppleWebKit/537.36 (KHTML, like Gecko) Chrome/126.0.0.0 Safari/537.36" etag="xt0yvNiZM74jESWhmluk" version="24.7.1" type="device">
  <diagram id="2WGy25AUBtk22ILBmXkd" name="Page-1">
    <mxGraphModel dx="631" dy="1142" grid="1" gridSize="10" guides="1" tooltips="1" connect="1" arrows="1" fold="1" page="1" pageScale="1" pageWidth="827" pageHeight="1169" math="0" shadow="0">
      <root>
        <mxCell id="0" />
        <mxCell id="1" parent="0" />
        <mxCell id="NlblMf4f3ngUBcw0e8Wg-1" value="PostGIS" style="shape=datastore;whiteSpace=wrap;html=1;" vertex="1" parent="1">
          <mxGeometry x="520" y="300" width="60" height="60" as="geometry" />
        </mxCell>
        <mxCell id="NlblMf4f3ngUBcw0e8Wg-2" value="Cesium client" style="rounded=0;whiteSpace=wrap;html=1;" vertex="1" parent="1">
          <mxGeometry x="180" y="50" width="120" height="60" as="geometry" />
        </mxCell>
        <mxCell id="NlblMf4f3ngUBcw0e8Wg-3" value="TdTilesRessources" style="rounded=0;whiteSpace=wrap;html=1;" vertex="1" parent="1">
          <mxGeometry x="180" y="160" width="120" height="60" as="geometry" />
        </mxCell>
        <mxCell id="NlblMf4f3ngUBcw0e8Wg-30" style="edgeStyle=orthogonalEdgeStyle;rounded=0;orthogonalLoop=1;jettySize=auto;html=1;exitX=1;exitY=0.5;exitDx=0;exitDy=0;entryX=0.5;entryY=1;entryDx=0;entryDy=0;startArrow=classic;startFill=1;" edge="1" parent="1" source="NlblMf4f3ngUBcw0e8Wg-4" target="NlblMf4f3ngUBcw0e8Wg-1">
          <mxGeometry relative="1" as="geometry">
            <Array as="points">
              <mxPoint x="260" y="330" />
              <mxPoint x="260" y="380" />
              <mxPoint x="550" y="380" />
            </Array>
          </mxGeometry>
        </mxCell>
        <mxCell id="NlblMf4f3ngUBcw0e8Wg-32" value="SQL" style="edgeLabel;html=1;align=center;verticalAlign=middle;resizable=0;points=[];" vertex="1" connectable="0" parent="NlblMf4f3ngUBcw0e8Wg-30">
          <mxGeometry x="0.6157" y="-2" relative="1" as="geometry">
            <mxPoint x="6" y="8" as="offset" />
          </mxGeometry>
        </mxCell>
        <mxCell id="NlblMf4f3ngUBcw0e8Wg-4" value="TdTilesStore" style="rounded=0;whiteSpace=wrap;html=1;" vertex="1" parent="1">
          <mxGeometry x="50" y="300" width="120" height="60" as="geometry" />
        </mxCell>
        <mxCell id="NlblMf4f3ngUBcw0e8Wg-29" style="edgeStyle=orthogonalEdgeStyle;rounded=0;orthogonalLoop=1;jettySize=auto;html=1;exitX=1;exitY=0.5;exitDx=0;exitDy=0;entryX=0;entryY=0.5;entryDx=0;entryDy=0;startArrow=classic;startFill=1;" edge="1" parent="1" source="NlblMf4f3ngUBcw0e8Wg-5" target="NlblMf4f3ngUBcw0e8Wg-1">
          <mxGeometry relative="1" as="geometry" />
        </mxCell>
        <mxCell id="NlblMf4f3ngUBcw0e8Wg-31" value="SQL" style="edgeLabel;html=1;align=center;verticalAlign=middle;resizable=0;points=[];" vertex="1" connectable="0" parent="NlblMf4f3ngUBcw0e8Wg-29">
          <mxGeometry x="-0.149" relative="1" as="geometry">
            <mxPoint x="21" y="-10" as="offset" />
          </mxGeometry>
        </mxCell>
        <mxCell id="NlblMf4f3ngUBcw0e8Wg-5" value="TdSubtree&lt;span style=&quot;background-color: initial;&quot;&gt;Store&lt;/span&gt;" style="rounded=0;whiteSpace=wrap;html=1;" vertex="1" parent="1">
          <mxGeometry x="310" y="300" width="120" height="60" as="geometry" />
        </mxCell>
        <mxCell id="NlblMf4f3ngUBcw0e8Wg-6" value="GltfBuilder" style="rounded=0;whiteSpace=wrap;html=1;" vertex="1" parent="1">
          <mxGeometry x="50" y="410" width="120" height="60" as="geometry" />
        </mxCell>
        <mxCell id="NlblMf4f3ngUBcw0e8Wg-9" value="" style="endArrow=classic;html=1;rounded=0;exitX=0.5;exitY=1;exitDx=0;exitDy=0;entryX=0.5;entryY=0;entryDx=0;entryDy=0;startArrow=classic;startFill=1;" edge="1" parent="1" source="NlblMf4f3ngUBcw0e8Wg-2" target="NlblMf4f3ngUBcw0e8Wg-3">
          <mxGeometry width="50" height="50" relative="1" as="geometry">
            <mxPoint x="170" y="500" as="sourcePoint" />
            <mxPoint x="220" y="450" as="targetPoint" />
          </mxGeometry>
        </mxCell>
        <mxCell id="NlblMf4f3ngUBcw0e8Wg-10" value="HTTP" style="edgeLabel;html=1;align=center;verticalAlign=middle;resizable=0;points=[];" vertex="1" connectable="0" parent="NlblMf4f3ngUBcw0e8Wg-9">
          <mxGeometry x="0.4312" y="1" relative="1" as="geometry">
            <mxPoint x="-21" y="-20" as="offset" />
          </mxGeometry>
        </mxCell>
        <mxCell id="NlblMf4f3ngUBcw0e8Wg-14" value="" style="endArrow=classic;html=1;rounded=0;exitX=0.5;exitY=1;exitDx=0;exitDy=0;entryX=0.75;entryY=0;entryDx=0;entryDy=0;" edge="1" parent="1" source="NlblMf4f3ngUBcw0e8Wg-3" target="NlblMf4f3ngUBcw0e8Wg-4">
          <mxGeometry width="50" height="50" relative="1" as="geometry">
            <mxPoint x="470" y="480" as="sourcePoint" />
            <mxPoint x="520" y="430" as="targetPoint" />
          </mxGeometry>
        </mxCell>
        <mxCell id="NlblMf4f3ngUBcw0e8Wg-16" value="Requests" style="edgeLabel;html=1;align=center;verticalAlign=middle;resizable=0;points=[];" vertex="1" connectable="0" parent="NlblMf4f3ngUBcw0e8Wg-14">
          <mxGeometry x="-0.3693" y="1" relative="1" as="geometry">
            <mxPoint x="31" y="3" as="offset" />
          </mxGeometry>
        </mxCell>
        <mxCell id="NlblMf4f3ngUBcw0e8Wg-15" value="" style="endArrow=classic;html=1;rounded=0;exitX=0.5;exitY=1;exitDx=0;exitDy=0;entryX=0.25;entryY=0;entryDx=0;entryDy=0;" edge="1" parent="1" source="NlblMf4f3ngUBcw0e8Wg-3" target="NlblMf4f3ngUBcw0e8Wg-5">
          <mxGeometry width="50" height="50" relative="1" as="geometry">
            <mxPoint x="250" y="230" as="sourcePoint" />
            <mxPoint x="170" y="280" as="targetPoint" />
          </mxGeometry>
        </mxCell>
        <mxCell id="NlblMf4f3ngUBcw0e8Wg-17" value="" style="endArrow=classic;html=1;rounded=0;exitX=0.5;exitY=0;exitDx=0;exitDy=0;entryX=0.25;entryY=1;entryDx=0;entryDy=0;" edge="1" parent="1" source="NlblMf4f3ngUBcw0e8Wg-4" target="NlblMf4f3ngUBcw0e8Wg-3">
          <mxGeometry width="50" height="50" relative="1" as="geometry">
            <mxPoint x="470" y="480" as="sourcePoint" />
            <mxPoint x="520" y="430" as="targetPoint" />
          </mxGeometry>
        </mxCell>
        <mxCell id="NlblMf4f3ngUBcw0e8Wg-19" value="glb file" style="edgeLabel;html=1;align=center;verticalAlign=middle;resizable=0;points=[];" vertex="1" connectable="0" parent="NlblMf4f3ngUBcw0e8Wg-17">
          <mxGeometry x="0.067" y="2" relative="1" as="geometry">
            <mxPoint x="-31" as="offset" />
          </mxGeometry>
        </mxCell>
        <mxCell id="NlblMf4f3ngUBcw0e8Wg-18" value="" style="endArrow=classic;html=1;rounded=0;exitX=0.5;exitY=0;exitDx=0;exitDy=0;entryX=0.75;entryY=1;entryDx=0;entryDy=0;" edge="1" parent="1" source="NlblMf4f3ngUBcw0e8Wg-5" target="NlblMf4f3ngUBcw0e8Wg-3">
          <mxGeometry width="50" height="50" relative="1" as="geometry">
            <mxPoint x="140" y="280" as="sourcePoint" />
            <mxPoint x="220" y="230" as="targetPoint" />
          </mxGeometry>
        </mxCell>
        <mxCell id="NlblMf4f3ngUBcw0e8Wg-24" value="Subtree" style="edgeLabel;html=1;align=center;verticalAlign=middle;resizable=0;points=[];" vertex="1" connectable="0" parent="NlblMf4f3ngUBcw0e8Wg-18">
          <mxGeometry x="-0.177" y="1" relative="1" as="geometry">
            <mxPoint x="24" y="-8" as="offset" />
          </mxGeometry>
        </mxCell>
        <mxCell id="NlblMf4f3ngUBcw0e8Wg-20" value="" style="endArrow=classic;html=1;rounded=0;exitX=0.25;exitY=0;exitDx=0;exitDy=0;entryX=0.25;entryY=1;entryDx=0;entryDy=0;" edge="1" parent="1" source="NlblMf4f3ngUBcw0e8Wg-6" target="NlblMf4f3ngUBcw0e8Wg-4">
          <mxGeometry width="50" height="50" relative="1" as="geometry">
            <mxPoint x="-30" y="440" as="sourcePoint" />
            <mxPoint x="50" y="360" as="targetPoint" />
          </mxGeometry>
        </mxCell>
        <mxCell id="NlblMf4f3ngUBcw0e8Wg-21" value="glb file" style="edgeLabel;html=1;align=center;verticalAlign=middle;resizable=0;points=[];" vertex="1" connectable="0" parent="NlblMf4f3ngUBcw0e8Wg-20">
          <mxGeometry x="0.067" y="2" relative="1" as="geometry">
            <mxPoint x="-28" y="7" as="offset" />
          </mxGeometry>
        </mxCell>
        <mxCell id="NlblMf4f3ngUBcw0e8Wg-22" value="" style="endArrow=classic;html=1;rounded=0;exitX=0.75;exitY=1;exitDx=0;exitDy=0;entryX=0.75;entryY=0;entryDx=0;entryDy=0;" edge="1" parent="1" source="NlblMf4f3ngUBcw0e8Wg-4" target="NlblMf4f3ngUBcw0e8Wg-6">
          <mxGeometry width="50" height="50" relative="1" as="geometry">
            <mxPoint x="230" y="230" as="sourcePoint" />
            <mxPoint x="150" y="310" as="targetPoint" />
            <Array as="points">
              <mxPoint x="140" y="390" />
            </Array>
          </mxGeometry>
        </mxCell>
        <mxCell id="NlblMf4f3ngUBcw0e8Wg-23" value="Requests" style="edgeLabel;html=1;align=center;verticalAlign=middle;resizable=0;points=[];" vertex="1" connectable="0" parent="NlblMf4f3ngUBcw0e8Wg-22">
          <mxGeometry x="-0.3693" y="1" relative="1" as="geometry">
            <mxPoint x="29" y="4" as="offset" />
          </mxGeometry>
        </mxCell>
        <mxCell id="NlblMf4f3ngUBcw0e8Wg-33" value="" style="rounded=0;whiteSpace=wrap;html=1;fillColor=none;" vertex="1" parent="1">
          <mxGeometry x="20" y="140" width="440" height="350" as="geometry" />
        </mxCell>
        <mxCell id="NlblMf4f3ngUBcw0e8Wg-34" value="API" style="text;html=1;align=left;verticalAlign=bottom;whiteSpace=wrap;rounded=0;" vertex="1" parent="1">
          <mxGeometry x="20" y="110" width="60" height="30" as="geometry" />
        </mxCell>
      </root>
    </mxGraphModel>
  </diagram>
</mxfile>
